# xmcd
#
# Track frame offsets:
#	150
#	13581
#	29529
#	42026
#	59088
#	73652
#	86850
#	101249
#	114897
#	128402
#	146282
#	159524
# Disc length: 2301 seconds
# Revision: 3
# Processed by: cddbd v1.5.1PL2 Copyright (c) Steve Scherf et al.
#
# Submitted via: libkcddb 0.21
#
DISCID=9e08fb0c
DTITLE=Truck Stop - Take It Easy, altes Haus
DYEAR=1900
DGENRE=Country
TTITLE0=TAKE IT EASY, ALTES HAUS
TTITLE1=ICH MÖCHT' SO GERN DAVE DUDDLEY HÖR'N
TTITLE2=DER WILDE, WILDE WESTEN
TTITLE3=OLD TEXAS DOWN, DIE WESTERNSTADT
TTITLE4=EIN TAG WIE EIN FREUND
TTITLE5=ALLES KLAR
TTITLE6=MEIN STIEFEL KOMMT IN' HIMMEL
TTITLE7=DIE ELBBRÜCKE IST AUS EISEN
TTITLE8=TAUSEND MEILEN
TTITLE9=KLEINE COWBOYS WERDEN GROSS
TTITLE10=ARIZONA-ARIZONA
TTITLE11=DIE FRAU MIT DEM GURT
EXTD=YEAR: 200
EXTT0=
EXTT1=
EXTT2=
EXTT3=
EXTT4=
EXTT5=
EXTT6=
EXTT7=
EXTT8=
EXTT9=
EXTT10=
EXTT11=
PLAYORDER=
